<svg width="16" height="16" viewBox="0 0 16 16" fill="none" xmlns="http://www.w3.org/2000/svg">
<path d="M1.09521 0.125L2.35209 14.2354L7.99184 15.8079L13.6473 14.2296L14.9052 0.125H1.09521ZM12.2941 3.35775L11.8757 8.05838L11.877 8.08375L11.8752 8.14213V8.14163L11.578 11.4284L11.5452 11.7204L8.00021 12.7009V12.701L7.99747 12.7034L4.45859 11.7174L4.21896 9H5.95434L6.07747 10.3818L8.00071 10.903L8.00021 10.904V10.9038L9.93059 10.3751L10.1346 8.125H6.09921L6.06459 7.74463L5.98571 6.8535L5.94434 6.375H10.288L10.446 4.625H3.83021L3.79559 4.24487L3.71684 3.3535L3.67534 2.875H12.3355L12.2941 3.35775V3.35775Z" fill="#1572B6"/>
</svg>
