<svg width="16" height="16" viewBox="0 0 16 16" fill="none" xmlns="http://www.w3.org/2000/svg">
<path d="M2.37953 14.2344L1.12891 0.20752H14.8709L13.6189 14.2323L7.99153 15.7923L2.37953 14.2344Z" fill="#E44D26"/>
<path d="M8 14.6L12.5472 13.3392L13.6171 1.35449H8V14.6Z" fill="#F16529"/>
<path d="M7.99991 6.55671H5.72341L5.56616 4.79496H7.99991V3.07471H3.68604L3.72729 3.53621L4.15004 8.27708H7.99991V6.55671ZM7.99991 11.0246L7.99228 11.0267L6.07641 10.5092L5.95404 9.13733H4.22691L4.46791 11.8385L7.99203 12.8167L7.99991 12.8146V11.0246Z" fill="#EBEBEB"/>
<path d="M7.99414 6.55671V8.27708H10.1125L9.91289 10.5082L7.99414 11.0261V12.816L11.521 11.8385L11.5469 11.5478L11.9511 7.01871L11.993 6.55671H11.5295H7.99414ZM7.99414 3.07471V4.79496H12.1496L12.1841 4.40846L12.2626 3.53621L12.3038 3.07471H7.99414Z" fill="white"/>
</svg>
