<svg width="16" height="16" viewBox="0 0 16 16" fill="none" xmlns="http://www.w3.org/2000/svg">
<path d="M5.95216 12.2648C5.95216 12.2648 5.35629 12.6115 6.37679 12.7285C7.61329 12.8698 8.24516 12.8495 9.60741 12.592C9.60741 12.592 9.96629 12.8164 10.4665 13.0109C7.41166 14.3196 3.55304 12.935 5.95216 12.2648ZM5.57866 10.5566C5.57866 10.5566 4.91016 11.0515 5.93154 11.1573C7.25241 11.2936 8.29529 11.3048 10.1008 10.9573C10.1008 10.9573 10.3499 11.2104 10.7423 11.3486C7.04954 12.4286 2.93654 11.4336 5.57866 10.5566V10.5566Z" fill="#0074BD"/>
<path d="M8.72532 7.65912C9.47844 8.52599 8.52782 9.30537 8.52782 9.30537C8.52782 9.30537 10.4389 8.31899 9.56144 7.08324C8.74157 5.93137 8.11307 5.35924 11.5158 3.38574C11.5158 3.38587 6.17444 4.71949 8.72532 7.65912V7.65912Z" fill="#EA2D2E"/>
<path d="M12.7653 13.5289C12.7653 13.5289 13.2064 13.8926 12.2793 14.1737C10.5166 14.7077 4.94105 14.8687 3.39255 14.1951C2.83618 13.9529 3.87993 13.617 4.2083 13.5461C4.55068 13.472 4.74618 13.4855 4.74618 13.4855C4.12705 13.0496 0.744554 14.3417 3.0283 14.7124C9.25593 15.7219 14.3804 14.2577 12.7653 13.5289V13.5289ZM6.23893 8.78699C6.23893 8.78699 3.40318 9.46062 5.2348 9.70549C6.0083 9.80899 7.54955 9.78524 8.98618 9.66474C10.1599 9.56612 11.3378 9.35549 11.3378 9.35549C11.3378 9.35549 10.9243 9.53287 10.6248 9.73712C7.74455 10.4947 2.1818 10.1419 3.78343 9.36737C5.13743 8.71249 6.23893 8.78699 6.23893 8.78699V8.78699ZM11.3261 11.6304C14.2537 10.1095 12.8999 8.64787 11.9551 8.84474C11.7241 8.89287 11.6204 8.93474 11.6204 8.93474C11.6204 8.93474 11.7064 8.79987 11.8704 8.74187C13.7396 8.08499 15.1768 10.6797 11.2676 11.7075C11.2676 11.7072 11.3124 11.6666 11.3261 11.6304V11.6304Z" fill="#0074BD"/>
<path d="M9.56152 0.198242C9.56152 0.198242 11.1825 1.82024 8.02364 4.31362C5.49039 6.31437 7.44602 7.45487 8.02277 8.75849C6.54389 7.42437 5.45914 6.24974 6.18677 5.15662C7.25527 3.55237 10.2154 2.77424 9.56152 0.198242Z" fill="#EA2D2E"/>
<path d="M6.52668 15.7527C9.33618 15.9324 13.6517 15.6527 13.7538 14.3232C13.7538 14.3232 13.5574 14.8272 11.4317 15.2271C9.03343 15.6786 6.07493 15.626 4.3208 15.3364C4.3208 15.3365 4.68018 15.634 6.52668 15.7527V15.7527Z" fill="#0074BD"/>
</svg>
