<svg width="16" height="16" viewBox="0 0 16 16" fill="none" xmlns="http://www.w3.org/2000/svg">
<path d="M0.175781 0.175781H15.8238V15.8239H0.175781V0.175781Z" fill="#F0DB4F"/>
<path d="M14.5432 12.0921C14.4286 11.3782 13.9631 10.7786 12.5842 10.2195C12.1052 9.99936 11.5712 9.84173 11.4121 9.47873C11.3556 9.26748 11.3481 9.14848 11.3838 9.02061C11.4864 8.60561 11.9818 8.47623 12.3744 8.59523C12.6273 8.67998 12.8667 8.87486 13.0111 9.18573C13.6863 8.74848 13.6849 8.75136 14.1564 8.45086C13.9838 8.18323 13.8917 8.05973 13.7787 7.94523C13.3726 7.49161 12.8192 7.25798 11.9342 7.27586L11.4732 7.33548C11.0314 7.44711 10.6104 7.67898 10.3636 7.98986C9.62282 8.83036 9.83407 10.3014 10.7354 10.9067C11.6234 11.5732 12.9279 11.7249 13.0946 12.3481C13.2567 13.1111 12.5338 13.3581 11.8153 13.2704C11.2858 13.1602 10.9913 12.8911 10.6729 12.4017C10.0869 12.7409 10.0869 12.7409 9.48445 13.0874C9.62732 13.3997 9.77745 13.5411 10.0169 13.8117C11.1504 14.9615 13.9869 14.905 14.4957 13.1647C14.5163 13.105 14.6533 12.7065 14.5432 12.0921V12.0921ZM8.68257 7.36798H7.21895L7.21295 11.152C7.21295 11.9567 7.25457 12.6945 7.1237 12.9206C6.90957 13.3654 6.3547 13.3102 6.10182 13.224C5.84445 13.0975 5.71357 12.9176 5.56195 12.6634C5.52032 12.5904 5.48907 12.5339 5.47857 12.5295L4.28857 13.2582C4.48645 13.6644 4.77795 14.0169 5.15132 14.2459C5.70907 14.5806 6.4587 14.6832 7.2427 14.5032C7.75295 14.3546 8.1932 14.0467 8.4237 13.5781C8.75695 12.9637 8.68545 12.2201 8.68245 11.3976C8.68995 10.0557 8.68257 8.71411 8.68257 7.36798V7.36798Z" fill="#323330"/>
</svg>
