<svg width="16" height="16" viewBox="0 0 16 16" fill="none" xmlns="http://www.w3.org/2000/svg">
<path d="M14.2906 10.0935C14.2543 10.0935 14.2183 10.084 14.1866 10.0655L13.8553 9.86951C13.8058 9.84188 13.83 9.83201 13.8463 9.82638C13.9123 9.80338 13.9257 9.79801 13.9961 9.75826C14.0035 9.75413 14.0131 9.75563 14.0207 9.76013L14.2751 9.91126C14.2798 9.91378 14.2851 9.91511 14.2905 9.91511C14.2958 9.91511 14.3011 9.91378 14.3058 9.91126L15.298 9.33863C15.3026 9.33588 15.3065 9.33194 15.3092 9.32723C15.3118 9.32251 15.3132 9.31718 15.3132 9.31176V8.16676C15.3132 8.16126 15.3118 8.15585 15.3091 8.15105C15.3064 8.14626 15.3025 8.14224 15.2978 8.13938L14.3061 7.56726C14.3014 7.56467 14.2961 7.56332 14.2908 7.56332C14.2854 7.56332 14.2801 7.56467 14.2755 7.56726L13.2838 8.13951C13.2791 8.14235 13.2752 8.14634 13.2725 8.15111C13.2698 8.15588 13.2683 8.16126 13.2682 8.16676V9.31176C13.2682 9.32276 13.2743 9.33313 13.2838 9.33826L13.5556 9.49538C13.7031 9.56901 13.7935 9.48226 13.7935 9.39501V8.26438C13.7935 8.24851 13.8063 8.23588 13.8222 8.23588H13.9481C13.9637 8.23588 13.9767 8.24851 13.9767 8.26438V9.39501C13.9767 9.59176 13.8696 9.70463 13.683 9.70463C13.6256 9.70463 13.5805 9.70463 13.4545 9.64263L13.1943 9.49288C13.1627 9.47444 13.1364 9.44802 13.1182 9.41626C13.0999 9.3845 13.0903 9.34851 13.0903 9.31188V8.16688C13.0903 8.09251 13.13 8.02313 13.1943 7.98613L14.1865 7.41276C14.2184 7.39535 14.2542 7.38623 14.2906 7.38623C14.327 7.38623 14.3629 7.39535 14.3948 7.41276L15.387 7.98613C15.4512 8.02326 15.4911 8.09263 15.4911 8.16688V9.31188C15.491 9.34851 15.4814 9.38449 15.4631 9.41624C15.4448 9.44799 15.4186 9.47441 15.387 9.49288L14.3948 10.0656C14.3632 10.084 14.3272 10.0936 14.2906 10.0935ZM14.5972 9.30463C14.1628 9.30463 14.072 9.10526 14.072 8.93813C14.072 8.93053 14.075 8.92325 14.0804 8.91788C14.0858 8.91252 14.0931 8.90951 14.1007 8.90951H14.229C14.2358 8.90948 14.2425 8.91191 14.2477 8.91636C14.2529 8.92081 14.2564 8.92698 14.2575 8.93376C14.2767 9.06438 14.3346 9.13026 14.5972 9.13026C14.8061 9.13026 14.8951 9.08301 14.8951 8.97201C14.8951 8.90801 14.8698 8.86063 14.5451 8.82876C14.2736 8.80188 14.1057 8.74201 14.1057 8.52463C14.1057 8.32451 14.2745 8.20501 14.5572 8.20501C14.8751 8.20501 15.0323 8.31538 15.0522 8.55213C15.0525 8.55612 15.052 8.56012 15.0507 8.5639C15.0494 8.56769 15.0474 8.57117 15.0447 8.57413C15.042 8.57698 15.0387 8.57925 15.0351 8.58081C15.0315 8.58238 15.0276 8.58321 15.0237 8.58326H14.8948C14.8883 8.58327 14.882 8.58105 14.877 8.57698C14.8719 8.57291 14.8684 8.56723 14.867 8.56088C14.836 8.42338 14.761 8.37951 14.5571 8.37951C14.329 8.37951 14.3025 8.45913 14.3025 8.51851C14.3025 8.59063 14.3337 8.61163 14.6418 8.65238C14.9467 8.69276 15.0916 8.74976 15.0916 8.96413C15.0917 9.18076 14.9115 9.30463 14.5972 9.30463" fill="#83CD29"/>
<path d="M12.2478 8.55364C12.287 8.53076 12.3111 8.48901 12.3111 8.44364V8.14939C12.3111 8.10414 12.2871 8.06239 12.2478 8.03951L11.2023 7.43251C11.183 7.42127 11.1611 7.41533 11.1387 7.41528C11.1163 7.41524 11.0943 7.4211 11.075 7.43226L10.023 8.03964C10.0037 8.0508 9.98766 8.06684 9.97652 8.08615C9.96537 8.10545 9.9595 8.12735 9.95947 8.14964V9.36414C9.95947 9.40976 9.98397 9.45201 10.0237 9.47464L11.0691 10.0703C11.1076 10.0924 11.1548 10.0925 11.1937 10.071L11.826 9.71951C11.8358 9.71405 11.844 9.70607 11.8498 9.69639C11.8555 9.68671 11.8586 9.67567 11.8587 9.66442C11.8587 9.65316 11.8558 9.64209 11.8502 9.63233C11.8446 9.62257 11.8365 9.61448 11.8267 9.60889L10.7682 9.00139C10.7585 8.99585 10.7504 8.98785 10.7448 8.97819C10.7392 8.96854 10.7362 8.95756 10.7362 8.94639V8.56564C10.7362 8.54289 10.7483 8.52201 10.768 8.51076L11.0976 8.32076C11.1072 8.31518 11.1182 8.31223 11.1293 8.31223C11.1404 8.31223 11.1513 8.31518 11.161 8.32076L11.4906 8.51076C11.5003 8.5163 11.5083 8.52429 11.5139 8.53392C11.5195 8.54356 11.5225 8.5545 11.5225 8.56564V8.86514C11.5224 8.87634 11.5253 8.88735 11.5309 8.89706C11.5365 8.90678 11.5445 8.91484 11.5542 8.92043C11.5639 8.92602 11.5749 8.92893 11.5861 8.92888C11.5973 8.92883 11.6083 8.92581 11.618 8.92014L12.2478 8.55364" fill="#404137"/>
<path d="M11.1232 8.49682C11.1269 8.49474 11.1311 8.49365 11.1354 8.49365C11.1396 8.49365 11.1438 8.49474 11.1476 8.49682L11.3494 8.61345C11.3569 8.61782 11.3616 8.62595 11.3616 8.63457V8.8677C11.3616 8.87645 11.3569 8.88445 11.3494 8.88882L11.1476 9.00532C11.1439 9.00748 11.1396 9.00861 11.1354 9.00861C11.1311 9.00861 11.1269 9.00748 11.1232 9.00532L10.9214 8.88882C10.9177 8.8867 10.9146 8.88363 10.9125 8.87992C10.9103 8.8762 10.9092 8.87199 10.9092 8.8677V8.63457C10.9092 8.62595 10.9138 8.61782 10.9214 8.61345L11.1232 8.49682Z" fill="#83CD29"/>
<path d="M8.38518 8.98184C8.38518 8.99309 8.37918 9.00359 8.3693 9.00934L8.00805 9.21759C8.00324 9.22042 7.99776 9.2219 7.99218 9.2219C7.9866 9.2219 7.98112 9.22042 7.9763 9.21759L7.61505 9.00934C7.61024 9.00655 7.60623 9.00254 7.60345 8.99771C7.60066 8.99289 7.59919 8.98741 7.59918 8.98184V8.56459C7.59918 8.55334 7.6053 8.54272 7.61505 8.53697L7.9763 8.32847C7.98112 8.32558 7.98663 8.32406 7.99224 8.32406C7.99786 8.32406 8.00336 8.32558 8.00818 8.32847L8.36955 8.53697C8.37434 8.53982 8.37831 8.54386 8.38107 8.5487C8.38383 8.55355 8.38529 8.55902 8.3853 8.56459V8.98184H8.38518ZM8.4828 5.89234C8.47312 5.88705 8.46222 5.88436 8.45119 5.88453C8.44015 5.8847 8.42935 5.88773 8.41983 5.89332C8.41031 5.89891 8.4024 5.90687 8.39688 5.91642C8.39135 5.92598 8.3884 5.93681 8.3883 5.94784V7.56222C8.38827 7.57 8.38622 7.57765 8.38234 7.5844C8.37846 7.59115 8.37289 7.59677 8.36618 7.60072C8.3594 7.60459 8.35173 7.60662 8.34393 7.60662C8.33613 7.60662 8.32846 7.60459 8.32168 7.60072L8.05818 7.44884C8.03888 7.43773 8.01701 7.43188 7.99474 7.43188C7.97248 7.43188 7.9506 7.43773 7.9313 7.44884L6.87905 8.05609C6.85972 8.06725 6.84366 8.08331 6.8325 8.10264C6.82133 8.12197 6.81544 8.14389 6.81543 8.16622V9.38109C6.81543 9.42647 6.83968 9.46834 6.87893 9.49122L7.93118 10.0988C7.97043 10.1216 8.01893 10.1216 8.0583 10.0988L9.1108 9.49122C9.1301 9.48002 9.14612 9.46396 9.15726 9.44463C9.1684 9.42531 9.17428 9.4034 9.1743 9.38109V6.35272C9.1743 6.30672 9.1493 6.26422 9.10918 6.24172L8.4828 5.89234Z" fill="#404137"/>
<path d="M4.77993 7.42599C4.79922 7.41482 4.82113 7.40894 4.84343 7.40894C4.86572 7.40894 4.88763 7.41482 4.90693 7.42599L5.95918 8.03311C5.99843 8.05586 6.02268 8.09786 6.02268 8.14324V9.35849C6.02268 9.40386 5.99843 9.44586 5.95918 9.46861L4.90705 10.0762C4.88771 10.0874 4.8658 10.0932 4.84349 10.0932C4.82118 10.0932 4.79926 10.0874 4.77993 10.0762L3.72805 9.46861C3.70876 9.45742 3.69274 9.44135 3.6816 9.42203C3.67045 9.40271 3.66458 9.3808 3.66455 9.35849V8.14311C3.66455 8.09786 3.6888 8.05586 3.72805 8.03311L4.77993 7.42599" fill="#83CD29"/>
<path d="M2.86618 8.13301C2.86618 8.08726 2.84218 8.04526 2.80268 8.02263L1.7508 7.41726C1.73314 7.40702 1.71321 7.40131 1.6928 7.40063H1.68193C1.66152 7.40132 1.6416 7.40703 1.62393 7.41726L0.571926 8.02263C0.552573 8.03384 0.536507 8.04993 0.525339 8.06931C0.514172 8.08868 0.508296 8.11065 0.508301 8.13301L0.510551 9.76301C0.510551 9.78576 0.522426 9.80688 0.542301 9.81788C0.551817 9.82365 0.562734 9.82671 0.573863 9.82671C0.584993 9.82671 0.595909 9.82365 0.605426 9.81788L1.23043 9.45988C1.26993 9.43638 1.29405 9.39501 1.29405 9.34963V8.58813C1.29405 8.54263 1.31805 8.50076 1.35743 8.47801L1.62368 8.32476C1.64292 8.31345 1.66486 8.30754 1.68718 8.30763C1.70893 8.30763 1.73118 8.31313 1.75055 8.32476L2.01655 8.47801C2.05593 8.50076 2.08018 8.54263 2.08018 8.58813V9.34963C2.08018 9.39501 2.10455 9.43663 2.1438 9.45988L2.7688 9.81788C2.77844 9.82339 2.78935 9.82627 2.80045 9.82625C2.81155 9.82622 2.82245 9.82329 2.83206 9.81773C2.84167 9.81218 2.84966 9.80421 2.85523 9.79461C2.8608 9.785 2.86376 9.77411 2.8638 9.76301L2.86618 8.13301" fill="#404137"/>
</svg>
