<svg width="16" height="16" viewBox="0 0 16 16" fill="none" xmlns="http://www.w3.org/2000/svg">
<path d="M4.5 6.85005C4.96667 4.98338 6.13333 4.05005 8 4.05005C10.8 4.05005 11.15 6.15005 12.55 6.50005C13.4833 6.73338 14.3 6.38338 15 5.45005C14.5333 7.31672 13.3667 8.25005 11.5 8.25005C8.7 8.25005 8.35 6.15005 6.95 5.80005C6.01667 5.56672 5.2 5.91672 4.5 6.85005ZM1 11.05C1.46667 9.18338 2.63333 8.25005 4.5 8.25005C7.3 8.25005 7.65 10.35 9.05 10.7C9.98333 10.9334 10.8 10.5834 11.5 9.65005C11.0333 11.5167 9.86667 12.45 8 12.45C5.2 12.45 4.85 10.35 3.45 10C2.51667 9.76672 1.7 10.1167 1 11.05Z" fill="#44A8B3"/>
</svg>
