<svg width="16" height="16" viewBox="0 0 16 16" fill="none" xmlns="http://www.w3.org/2000/svg">
<path d="M8.01325 14.1667C11.4183 14.1667 14.1666 11.405 14.1666 7.98671C14.1666 4.58171 11.4183 1.83337 8.01325 1.83337M8.01325 14.1667C4.59492 14.1667 1.83325 11.405 1.83325 7.98671C1.83325 4.58171 4.59492 1.83337 8.01325 1.83337M8.01325 14.1667V1.83337M13.3506 4.91671H2.65325M13.3849 11.0084H2.61892M1.86659 8.00004H14.1333" stroke="#FFCD29" stroke-width="0.5" stroke-linecap="round" stroke-linejoin="round"/>
<path d="M8.00675 14.1667C9.70941 14.1667 11.0834 11.405 11.0834 7.98671C11.0834 4.58171 9.70941 1.83337 8.00675 1.83337C6.29741 1.83337 4.91675 4.58171 4.91675 7.98671C4.91675 11.405 6.29741 14.1667 8.00675 14.1667Z" stroke="#FFCD29" stroke-width="0.5" stroke-linecap="round" stroke-linejoin="round"/>
</svg>
